<svg width="128" xmlns="http://www.w3.org/2000/svg" height="128" id="screenshot-0a164559-52a5-80c2-8006-305f55e284c1" viewBox="0 0 128 128" xmlns:xlink="http://www.w3.org/1999/xlink" fill="none" version="1.1"><style>@font-face {
    font-family: 'sourcesanspro';
    font-style: normal;
    font-weight: bold;
    font-display: block;
    src: url(https://design.penpot.app/fonts/sourcesanspro-bold.woff) format('woff');
  }
@font-face {
    font-family: 'sourcesanspro';
    font-style: normal;
    font-weight: 300;
    font-display: block;
    src: url(https://design.penpot.app/fonts/sourcesanspro-light.woff) format('woff');
  }</style><g id="shape-0a164559-52a5-80c2-8006-305f55e284c1" rx="0" ry="0"><g id="shape-0a164559-52a5-80c2-8006-305f4c6d0db9" rx="0" ry="0"><g id="shape-0a164559-52a5-80c2-8006-305cad80ecb5" rx="0" ry="0"><g id="shape-0a164559-52a5-80c2-8006-305cad80ecb6"><g class="fills" id="fills-0a164559-52a5-80c2-8006-305cad80ecb6"><ellipse cx="13.499999999999972" cy="87.5" rx="2.4999999999999716" ry="2.5" transform="matrix(1.000000, 0.000000, 0.000000, 1.000000, 0.000000, 0.000000)" style="fill: rgb(0, 0, 0); fill-opacity: 1;"/></g></g><g id="shape-0a164559-52a5-80c2-8006-305cad80ecb7"><g class="fills" id="fills-0a164559-52a5-80c2-8006-305cad80ecb7"><ellipse cx="31.833333333333314" cy="87.5" rx="2.5" ry="2.5" transform="matrix(1.000000, 0.000000, 0.000000, 1.000000, 0.000000, 0.000000)" style="fill: rgb(0, 0, 0); fill-opacity: 1;"/></g></g><g id="shape-0a164559-52a5-80c2-8006-305cad80ecb8"><g class="fills" id="fills-0a164559-52a5-80c2-8006-305cad80ecb8"><ellipse cx="22.666666666666657" cy="87.5" rx="2.5000000000000284" ry="2.5" transform="matrix(1.000000, 0.000000, 0.000000, 1.000000, 0.000000, 0.000000)" style="fill: rgb(0, 0, 0); fill-opacity: 1;"/></g></g></g><g id="shape-0a164559-52a5-80c2-8006-305cb321b7a3" rx="0" ry="0"><g id="shape-0a164559-52a5-80c2-8006-305cb321b7a4"><g class="fills" id="fills-0a164559-52a5-80c2-8006-305cb321b7a4"><ellipse cx="13.499999999999972" cy="102.5" rx="2.4999999999999716" ry="2.5" transform="matrix(1.000000, 0.000000, 0.000000, 1.000000, 0.000000, 0.000000)" style="fill: rgb(0, 0, 0); fill-opacity: 1;"/></g></g><g id="shape-0a164559-52a5-80c2-8006-305cb321b7a5"><g class="fills" id="fills-0a164559-52a5-80c2-8006-305cb321b7a5"><ellipse cx="31.833333333333314" cy="102.5" rx="2.5" ry="2.5" transform="matrix(1.000000, 0.000000, 0.000000, 1.000000, 0.000000, 0.000000)" style="fill: rgb(0, 0, 0); fill-opacity: 1;"/></g></g><g id="shape-0a164559-52a5-80c2-8006-305cb321b7a6"><g class="fills" id="fills-0a164559-52a5-80c2-8006-305cb321b7a6"><ellipse cx="22.666666666666657" cy="102.5" rx="2.5000000000000284" ry="2.5" transform="matrix(1.000000, 0.000000, 0.000000, 1.000000, 0.000000, 0.000000)" style="fill: rgb(0, 0, 0); fill-opacity: 1;"/></g></g></g><g id="shape-0a164559-52a5-80c2-8006-3054e77cf77b"><g class="fills" id="fills-0a164559-52a5-80c2-8006-3054e77cf77b"><rect rx="0" ry="0" x="47" y="31" transform="matrix(1.000000, 0.000000, 0.000000, 1.000000, 0.000000, 0.000000)" width="1" height="96" style="fill: rgb(55, 56, 60); fill-opacity: 1;"/></g></g><g id="shape-0a164559-52a5-80c2-8006-3053e59e63b4"><defs><pattern patternUnits="userSpaceOnUse" x="0" y="0" width="128" height="128" id="fill-0-render-12"><g><rect width="128" height="128" style="fill: rgb(177, 178, 181); fill-opacity: 1;"/><rect width="128" height="128" style="fill: rgb(37, 120, 210); fill-opacity: 1;"/></g></pattern></defs><g class="fills" id="fills-0a164559-52a5-80c2-8006-3053e59e63b4"><rect rx="15" ry="15" x="0" y="0" transform="matrix(1.000000, 0.000000, 0.000000, 1.000000, 0.000000, 0.000000)" width="128" height="128" fill="url(#fill-0-render-12)"/></g></g><g id="shape-0a164559-52a5-80c2-8006-305470e615f1"><g class="fills" id="fills-0a164559-52a5-80c2-8006-305470e615f1"><rect rx="15" ry="15" x="0" y="32" transform="matrix(1.000000, 0.000000, 0.000000, 1.000000, 0.000000, 0.000000)" width="128" height="96" style="fill: rgb(255, 255, 255); fill-opacity: 1;"/></g><g id="strokes-3dfdbeae-02fa-8071-8006-3061589b4b08-0a164559-52a5-80c2-8006-305470e615f1" class="strokes"><g class="inner-stroke-shape" transform="matrix(1.000000, 0.000000, 0.000000, 1.000000, 0.000000, 0.000000)"><defs><clipPath id="inner-stroke-render-13-0a164559-52a5-80c2-8006-305470e615f1-0"><use href="#stroke-shape-render-13-0a164559-52a5-80c2-8006-305470e615f1-0"/></clipPath><rect rx="15" ry="15" x="0" y="32" width="128" height="96" id="stroke-shape-render-13-0a164559-52a5-80c2-8006-305470e615f1-0" style="fill: none; stroke-width: 2; stroke: rgb(37, 120, 210); stroke-opacity: 1;"/></defs><use href="#stroke-shape-render-13-0a164559-52a5-80c2-8006-305470e615f1-0" clip-path="url('#inner-stroke-render-13-0a164559-52a5-80c2-8006-305470e615f1-0')"/></g></g></g><g id="shape-0a164559-52a5-80c2-8006-305ad351875c"><g class="fills" id="fills-0a164559-52a5-80c2-8006-305ad351875c"><rect rx="0" ry="0" x="1" y="32" transform="matrix(1.000000, 0.000000, 0.000000, 1.000000, 0.000000, 0.000000)" width="126" height="20" style="fill: rgb(255, 255, 255); fill-opacity: 1;"/></g></g><g id="shape-0a164559-52a5-80c2-8006-3057a91eeb55" rx="0" ry="0"><g id="shape-0a164559-52a5-80c2-8006-3057a91f3ab4"><g class="fills" id="fills-0a164559-52a5-80c2-8006-3057a91f3ab4"><ellipse cx="13.499999999999972" cy="41.5" rx="2.4999999999999716" ry="2.5" transform="matrix(1.000000, 0.000000, 0.000000, 1.000000, 0.000000, 0.000000)" style="fill: rgb(0, 0, 0); fill-opacity: 1;"/></g></g><g id="shape-0a164559-52a5-80c2-8006-3057a91f3ab5"><g class="fills" id="fills-0a164559-52a5-80c2-8006-3057a91f3ab5"><ellipse cx="31.833333333333314" cy="41.5" rx="2.5" ry="2.5" transform="matrix(1.000000, 0.000000, 0.000000, 1.000000, 0.000000, 0.000000)" style="fill: rgb(0, 0, 0); fill-opacity: 1;"/></g></g><g id="shape-0a164559-52a5-80c2-8006-3057a91f3ab6"><g class="fills" id="fills-0a164559-52a5-80c2-8006-3057a91f3ab6"><ellipse cx="22.666666666666657" cy="41.5" rx="2.5000000000000284" ry="2.5" transform="matrix(1.000000, 0.000000, 0.000000, 1.000000, 0.000000, 0.000000)" style="fill: rgb(0, 0, 0); fill-opacity: 1;"/></g></g></g><g id="shape-0a164559-52a5-80c2-8006-305c05c69a25"><g transform="matrix(0.000000, -1.000000, 1.000000, 0.000000, -46.500000, 65.500000)" class="text-container" x="5.5" y="47.5" width="8" height="17" rx="0" ry="0"><defs><pattern patternUnits="objectBoundingBox" width="7.3229169845581055" height="18.666667938232422" id="fill-0-render-19-0"><g><rect width="7.3229169845581055" height="18.666667938232422" style="fill: rgb(0, 0, 0); fill-opacity: 1;"/></g></pattern></defs><g class="fills" id="fills-0a164559-52a5-80c2-8006-305c05c69a25"><text x="5.5" y="64.83333456516266" dominant-baseline="ideographic" textLength="7.3229169845581055" lengthAdjust="spacingAndGlyphs" style="text-transform: none; font-family: sourcesanspro; letter-spacing: normal; font-style: normal; font-weight: 700; white-space: pre; font-size: 14px; text-decoration: none solid rgb(0, 0, 0); direction: ltr; fill: rgb(0, 0, 0); fill-opacity: 1;">v</text></g></g></g><g id="shape-0a164559-52a5-80c2-8006-305c38807fc0"><g transform="matrix(1.000000, 0.000000, 0.000000, 1.000000, 0.000000, 0.000000)" class="text-container" x="19" y="49" width="66" height="16" rx="0" ry="0"><defs><pattern patternUnits="objectBoundingBox" width="19.40625" height="24.666667938232422" id="fill-0-render-20-0"><g><rect width="19.40625" height="24.666667938232422" style="fill: rgb(0, 0, 0); fill-opacity: 1;"/></g></pattern></defs><g class="fills" id="fills-0a164559-52a5-80c2-8006-305c38807fc0"><text x="19" y="71.66666793823242" dominant-baseline="ideographic" textLength="19.40625" lengthAdjust="spacingAndGlyphs" style="text-transform: none; font-family: sourcesanspro; letter-spacing: normal; font-style: normal; font-weight: 700; white-space: pre; font-size: 18px; text-decoration: none solid rgb(0, 0, 0); direction: ltr; fill: rgb(0, 0, 0); fill-opacity: 1;">- - </text></g></g></g><g id="shape-0a164559-52a5-80c2-8006-305d51219cd5" width="17.088" height="40.216" xmlns:xlink="http://www.w3.org/1999/xlink" rx="0" ry="0" style="fill: rgb(0, 0, 0);"><g id="shape-0a164559-52a5-80c2-8006-305d51235193" style="display: none;"><g class="fills" id="fills-0a164559-52a5-80c2-8006-305d51235193"><rect width="50.00000000000017" height="49.61119154354708" x="43.9278826451137" transform="matrix(0.984808, -0.173648, 0.173648, 0.984808, -10.721197, 12.998800)" style="fill: none;" ry="0" fill="none" rx="0" y="42.96572595825046"/></g></g><g id="shape-0a164559-52a5-80c2-8006-305d5123a0e4"><defs style="fill: rgb(0, 0, 0);"><g id="shape-0a164559-52a5-80c2-8006-305d5124c808"><g class="fills" id="fills-0a164559-52a5-80c2-8006-305d5124c808"><path d="M48.129,59.015C48.688,58.523,49.541,58.176,50.689,57.974L50.793,57.955C51.767,57.784,52.818,58.052,53.947,58.760C55.076,59.467,56.192,60.510,57.295,61.887C58.398,63.265,59.451,64.659,60.453,66.069C61.454,67.479,62.478,69.014,63.524,70.674C63.682,70.963,63.809,71.175,63.905,71.310C67.507,77.098,71.238,82.395,75.097,87.201C78.956,92.008,81.687,95.093,83.291,96.458C83.546,96.685,83.758,96.874,83.928,97.025C84.099,97.177,84.451,97.447,84.986,97.837C85.521,98.226,86.062,98.554,86.611,98.820C87.160,99.085,87.815,99.340,88.575,99.584C89.335,99.828,90.152,99.986,91.025,100.059C91.898,100.132,92.803,100.078,93.739,99.898C95.687,99.554,97.102,99.040,97.985,98.356C98.869,97.671,99.322,96.986,99.344,96.302C99.280,95.936,99.019,95.679,98.563,95.533C98.107,95.387,97.683,95.318,97.290,95.327C96.897,95.336,96.511,95.381,96.131,95.463C95.400,95.592,94.759,95.818,94.207,96.143C93.654,96.467,93.412,96.819,93.479,97.200C93.603,97.904,94.598,98.159,96.465,97.966L96.324,98.082C96.227,98.144,96.097,98.220,95.933,98.309C95.770,98.399,95.639,98.467,95.539,98.515C95.044,98.753,94.483,98.928,93.857,99.038C93.370,99.124,92.902,99.116,92.454,99.014C92.006,98.911,91.377,98.599,90.568,98.077C89.759,97.554,88.931,96.824,88.084,95.885C87.237,94.946,86.157,93.602,84.845,91.853C83.533,90.105,82.161,88.019,80.730,85.596C77.812,81.047,74.856,76.785,71.860,72.809C68.864,68.833,66.567,65.973,64.969,64.230C63.371,62.486,62.166,61.248,61.356,60.514C58.076,57.571,54.471,56.445,50.542,57.138C49.151,57.384,47.921,57.835,46.854,58.491C45.787,59.148,45.253,59.884,45.254,60.701C45.344,61.214,45.736,61.507,46.431,61.581C47.125,61.655,47.803,61.634,48.463,61.518C49.193,61.389,49.835,61.162,50.387,60.838C50.940,60.514,51.182,60.162,51.115,59.780C50.991,59.077,49.996,58.822,48.129,59.015ZZ"/></g></g></defs></g><g id="shape-0a164559-52a5-80c2-8006-305d5125707c" rx="0" ry="0" style="fill: rgb(0, 0, 0);"><g id="shape-0a164559-52a5-80c2-8006-305d5125adab" rx="0" ry="0" style="fill: rgb(0, 0, 0);"><g id="shape-0a164559-52a5-80c2-8006-305d5126b5ab"><g class="fills" id="fills-0a164559-52a5-80c2-8006-305d5126b5ab"><path d="M54.313,94.086C55.007,94.356,55.927,94.390,57.074,94.188L57.179,94.170C58.152,93.998,59.049,93.387,59.867,92.335C60.686,91.284,61.378,89.923,61.944,88.251C62.510,86.579,63.022,84.910,63.481,83.242C63.940,81.574,64.376,79.781,64.791,77.864C64.841,77.538,64.888,77.295,64.932,77.136C66.337,70.465,68.031,64.211,70.014,58.375C71.997,52.539,73.508,48.705,74.548,46.875C74.710,46.574,74.845,46.323,74.953,46.123C75.061,45.923,75.300,45.548,75.669,44.999C76.039,44.450,76.436,43.957,76.860,43.520C77.285,43.082,77.813,42.618,78.444,42.129C79.075,41.640,79.788,41.212,80.584,40.845C81.380,40.478,82.248,40.219,83.190,40.068C85.137,39.725,86.643,39.724,87.707,40.065C88.771,40.407,89.431,40.895,89.686,41.530C89.751,41.896,89.594,42.226,89.216,42.520C88.837,42.813,88.462,43.023,88.090,43.149C87.717,43.275,87.339,43.365,86.954,43.418C86.223,43.546,85.543,43.553,84.913,43.437C84.283,43.322,83.935,43.073,83.868,42.692C83.744,41.988,84.591,41.408,86.411,40.951L86.239,40.891C86.127,40.865,85.979,40.839,85.795,40.811C85.611,40.783,85.464,40.763,85.354,40.752C84.807,40.698,84.220,40.725,83.594,40.836C83.107,40.922,82.671,41.089,82.284,41.339C81.898,41.588,81.414,42.097,80.832,42.864C80.251,43.632,79.723,44.602,79.248,45.774C78.773,46.946,78.218,48.578,77.583,50.670C76.948,52.762,76.373,55.191,75.856,57.957C74.671,63.229,73.350,68.246,71.895,73.007C70.439,77.768,69.259,81.240,68.354,83.425C67.448,85.610,66.740,87.186,66.229,88.153C64.154,92.041,61.151,94.331,57.222,95.024C55.831,95.269,54.521,95.266,53.294,95.013C52.066,94.761,51.313,94.252,51.034,93.485C50.944,92.972,51.212,92.562,51.839,92.255C52.466,91.948,53.110,91.736,53.771,91.619C54.501,91.491,55.181,91.484,55.811,91.600C56.441,91.715,56.790,91.964,56.857,92.345C56.981,93.048,56.133,93.629,54.313,94.086ZZ"/></g><g id="strokes-3dfdbeae-02fa-8071-8006-306158a62e2b-0a164559-52a5-80c2-8006-305d5126b5ab" class="strokes"><g class="stroke-shape"><path d="M54.313,94.086C55.007,94.356,55.927,94.390,57.074,94.188L57.179,94.170C58.152,93.998,59.049,93.387,59.867,92.335C60.686,91.284,61.378,89.923,61.944,88.251C62.510,86.579,63.022,84.910,63.481,83.242C63.940,81.574,64.376,79.781,64.791,77.864C64.841,77.538,64.888,77.295,64.932,77.136C66.337,70.465,68.031,64.211,70.014,58.375C71.997,52.539,73.508,48.705,74.548,46.875C74.710,46.574,74.845,46.323,74.953,46.123C75.061,45.923,75.300,45.548,75.669,44.999C76.039,44.450,76.436,43.957,76.860,43.520C77.285,43.082,77.813,42.618,78.444,42.129C79.075,41.640,79.788,41.212,80.584,40.845C81.380,40.478,82.248,40.219,83.190,40.068C85.137,39.725,86.643,39.724,87.707,40.065C88.771,40.407,89.431,40.895,89.686,41.530C89.751,41.896,89.594,42.226,89.216,42.520C88.837,42.813,88.462,43.023,88.090,43.149C87.717,43.275,87.339,43.365,86.954,43.418C86.223,43.546,85.543,43.553,84.913,43.437C84.283,43.322,83.935,43.073,83.868,42.692C83.744,41.988,84.591,41.408,86.411,40.951L86.239,40.891C86.127,40.865,85.979,40.839,85.795,40.811C85.611,40.783,85.464,40.763,85.354,40.752C84.807,40.698,84.220,40.725,83.594,40.836C83.107,40.922,82.671,41.089,82.284,41.339C81.898,41.588,81.414,42.097,80.832,42.864C80.251,43.632,79.723,44.602,79.248,45.774C78.773,46.946,78.218,48.578,77.583,50.670C76.948,52.762,76.373,55.191,75.856,57.957C74.671,63.229,73.350,68.246,71.895,73.007C70.439,77.768,69.259,81.240,68.354,83.425C67.448,85.610,66.740,87.186,66.229,88.153C64.154,92.041,61.151,94.331,57.222,95.024C55.831,95.269,54.521,95.266,53.294,95.013C52.066,94.761,51.313,94.252,51.034,93.485C50.944,92.972,51.212,92.562,51.839,92.255C52.466,91.948,53.110,91.736,53.771,91.619C54.501,91.491,55.181,91.484,55.811,91.600C56.441,91.715,56.790,91.964,56.857,92.345C56.981,93.048,56.133,93.629,54.313,94.086ZZ" style="fill: none; stroke-width: 0; stroke: rgb(0, 0, 0); stroke-opacity: 1;"/></g></g></g></g></g></g><g id="shape-0a164559-52a5-80c2-8006-305e1202bba0" width="52.816" height="16.4" xmlns:xlink="http://www.w3.org/1999/xlink" rx="0" ry="0" style="fill: rgb(0, 0, 0);"><g id="shape-0a164559-52a5-80c2-8006-305e12040552" style="display: none;"><g class="fills" id="fills-0a164559-52a5-80c2-8006-305e12040552"><rect width="81.86006218905476" height="25.41645522388059" x="22" transform="matrix(1.000000, 0.000000, 0.000000, 1.000000, 0.000000, 0.000000)" style="fill: none;" ry="0" fill="none" rx="0" y="4"/></g></g><g id="shape-0a164559-52a5-80c2-8006-305e12045260"><defs style="fill: rgb(0, 0, 0);"><g id="shape-0a164559-52a5-80c2-8006-305e1205df04"><g class="fills" id="fills-0a164559-52a5-80c2-8006-305e1205df04"><path d="M23.515,30.370C23.852,30.370,24.020,30.127,24.020,29.641C24.020,28.930,24.338,28.079,24.974,27.088C25.105,26.882,25.348,26.592,25.703,26.218C26.058,25.844,26.376,25.554,26.657,25.349C27.686,24.675,28.602,24.339,29.406,24.339C30.360,24.339,31.145,24.507,31.763,24.844C32.137,25.012,32.473,25.367,32.773,25.910C32.941,26.340,33.025,26.807,33.025,27.312C33.025,28.285,32.679,29.127,31.987,29.837C31.295,30.548,30.033,31.296,28.200,32.082C26.311,32.904,24.936,33.755,24.076,34.634C23.216,35.513,22.785,36.551,22.785,37.748C22.785,38.870,23.038,39.890,23.543,40.806C24.347,42.153,25.815,42.985,27.947,43.303C27.985,43.303,28.162,43.312,28.480,43.331C28.798,43.350,29.079,43.359,29.322,43.359C30.220,43.303,30.958,43.172,31.538,42.966C32.118,42.761,32.754,42.648,33.446,42.630C33.876,42.686,34.222,42.826,34.484,43.050C34.746,43.275,34.933,43.387,35.045,43.387C35.213,43.387,35.363,43.275,35.494,43.050L35.494,37.636L35.382,37.440C35.138,37.271,34.886,37.271,34.624,37.440C34.549,37.627,34.512,37.730,34.512,37.748C34.512,38.590,33.951,39.572,32.829,40.694C31.707,41.816,30.528,42.377,29.294,42.377C28.452,42.377,27.723,42.125,27.106,41.620C26.489,41.115,26.171,40.423,26.152,39.544C26.152,38.852,26.507,38.207,27.218,37.608C27.929,37.010,29.172,36.374,30.949,35.700C31.566,35.439,32.043,35.224,32.380,35.055C32.716,34.887,33.165,34.644,33.726,34.326C34.287,34.008,34.755,33.624,35.129,33.176C35.503,32.727,35.858,32.222,36.195,31.661C36.607,30.819,36.812,29.949,36.812,29.052C36.812,27.387,36.139,26.031,34.792,24.984C33.446,23.937,31.669,23.413,29.462,23.413C28.434,23.413,27.592,23.525,26.937,23.750C26.283,23.974,25.666,24.096,25.086,24.114C24.637,24.002,24.291,23.853,24.048,23.665C23.805,23.478,23.618,23.376,23.487,23.357C23.319,23.357,23.169,23.460,23.038,23.665L23.038,26.836L23.038,28.799C23.038,29.398,23.066,29.809,23.122,30.034C23.178,30.258,23.309,30.370,23.515,30.370ZZM34.512,41.059C34.512,41.601,34.493,41.872,34.456,41.872C34.362,41.835,34.278,41.797,34.203,41.760C34.016,41.760,33.829,41.713,33.642,41.620L33.334,41.620L33.698,41.199C34.035,40.862,34.241,40.647,34.315,40.554L34.512,40.301L34.512,41.059ZZM25.479,41.059L25.591,41.508C25.553,41.508,25.366,41.339,25.030,41.003C24.207,40.236,23.795,39.160,23.795,37.776C23.795,37.533,23.805,37.318,23.823,37.131C23.842,36.944,23.945,36.664,24.132,36.290C24.319,35.916,24.562,35.588,24.861,35.308C25.161,35.027,25.610,34.672,26.208,34.242C26.806,33.812,27.536,33.428,28.396,33.091C30.397,32.269,31.828,31.427,32.688,30.567C33.549,29.706,33.979,28.612,33.979,27.284C33.979,26.649,33.904,26.153,33.754,25.798L33.642,25.405C33.754,25.405,34.063,25.657,34.568,26.162C35.353,26.892,35.746,27.845,35.746,29.024C35.746,29.828,35.606,30.520,35.325,31.100C34.970,31.754,34.549,32.287,34.063,32.699C33.539,33.222,32.969,33.653,32.352,33.989C31.735,34.326,30.968,34.672,30.051,35.027C29.135,35.382,28.359,35.728,27.723,36.065C26.489,36.813,25.694,37.608,25.338,38.450C25.226,38.786,25.170,39.151,25.170,39.544C25.170,40.124,25.273,40.628,25.479,41.059ZZM24.104,24.900C24.123,24.900,24.263,24.928,24.525,24.984C24.787,25.040,24.974,25.078,25.086,25.096L25.338,25.096L24.974,25.489L24.076,26.527C24.039,26.527,24.020,26.256,24.020,25.713C24.020,25.171,24.048,24.900,24.104,24.900ZZ"/></g></g><g id="shape-0a164559-52a5-80c2-8006-305e1206e302"><g class="fills" id="fills-0a164559-52a5-80c2-8006-305e1206e302"><path d="M27.162,40.526C27.162,40.974,27.340,41.367,27.695,41.704C28.050,42.041,28.462,42.218,28.929,42.237C29.266,42.237,29.546,42.125,29.771,41.900C29.995,41.676,30.117,41.395,30.136,41.059C30.136,40.628,29.948,40.236,29.574,39.880C29.200,39.525,28.789,39.338,28.340,39.319C28.060,39.319,27.798,39.413,27.555,39.600C27.311,39.787,27.181,40.095,27.162,40.526ZZM22.589,31.745C22.589,31.895,22.673,32.184,22.842,32.615C23.010,33.045,23.234,33.522,23.515,34.045C23.795,34.569,24.207,35.046,24.749,35.476C25.292,35.906,25.853,36.112,26.432,36.093C27.162,36.093,27.770,35.878,28.256,35.448C28.742,35.018,28.995,34.438,29.013,33.709C29.013,33.391,28.882,32.867,28.621,32.138C28.359,31.408,27.985,30.426,27.498,29.192C27.012,27.958,26.619,26.901,26.320,26.022C26.227,25.611,26.180,25.311,26.180,25.124C26.180,24.657,26.339,24.423,26.657,24.423C26.825,24.423,27.003,24.451,27.190,24.507C27.377,24.563,27.592,24.694,27.835,24.900C28.078,25.106,28.331,25.433,28.593,25.882C28.854,26.331,29.088,26.882,29.294,27.537C29.350,27.761,29.397,27.892,29.434,27.930C29.472,27.967,29.631,27.986,29.911,27.986C30.285,27.986,30.472,27.892,30.472,27.705C30.472,27.556,30.388,27.266,30.220,26.836C30.051,26.405,29.818,25.928,29.518,25.405C29.219,24.881,28.798,24.414,28.256,24.002C27.714,23.591,27.134,23.385,26.517,23.385C25.918,23.385,25.366,23.581,24.861,23.974C24.356,24.367,24.095,24.965,24.076,25.770C24.076,26.087,24.123,26.387,24.216,26.667C24.310,26.948,24.712,28.014,25.423,29.865C26.133,31.754,26.545,32.886,26.657,33.260C26.769,33.634,26.835,33.999,26.853,34.354C26.853,34.803,26.694,35.027,26.376,35.027L26.320,35.027C25.759,35.027,25.245,34.719,24.777,34.101C24.310,33.484,23.954,32.699,23.711,31.745C23.693,31.726,23.674,31.698,23.655,31.661C23.636,31.623,23.627,31.595,23.627,31.577C23.627,31.558,23.608,31.539,23.571,31.520C23.534,31.502,23.506,31.492,23.487,31.492C23.468,31.492,23.431,31.492,23.375,31.492C23.319,31.492,23.244,31.492,23.150,31.492L22.757,31.492C22.645,31.605,22.589,31.689,22.589,31.745ZZ"/></g></g><g id="shape-0a164559-52a5-80c2-8006-305e12079350"><g class="fills" id="fills-0a164559-52a5-80c2-8006-305e12079350"><path d="M25.282,25.349C25.282,24.732,25.516,24.423,25.984,24.423C26.676,24.423,27.265,25.405,27.751,27.369C27.863,27.743,27.957,27.939,28.031,27.958C28.069,27.976,28.162,27.986,28.312,27.986L28.424,27.986C28.593,27.986,28.705,27.986,28.761,27.986C28.817,27.986,28.864,27.967,28.901,27.930C28.939,27.892,28.957,27.827,28.957,27.733C28.939,27.621,28.911,27.471,28.873,27.284C28.836,27.097,28.733,26.742,28.565,26.218C28.396,25.695,28.209,25.255,28.003,24.900C27.798,24.545,27.508,24.199,27.134,23.862C26.760,23.525,26.330,23.366,25.843,23.385C25.170,23.385,24.544,23.591,23.964,24.002C23.384,24.414,23.085,25.106,23.066,26.078C23.066,26.303,23.075,26.461,23.094,26.555L24.918,33.793C26.096,38.562,26.685,41.021,26.685,41.171C26.685,41.227,26.676,41.274,26.657,41.311C26.638,41.349,26.601,41.386,26.545,41.423C26.489,41.461,26.442,41.479,26.404,41.479C26.367,41.479,26.292,41.489,26.180,41.508C26.068,41.526,25.993,41.536,25.956,41.536C25.918,41.536,25.834,41.545,25.703,41.564C25.572,41.582,25.479,41.582,25.423,41.564C25.236,41.564,25.114,41.564,25.058,41.564C25.002,41.564,24.927,41.573,24.833,41.592C24.740,41.610,24.684,41.638,24.665,41.676C24.646,41.713,24.637,41.769,24.637,41.844C24.637,41.882,24.656,42.012,24.693,42.237C24.787,42.592,24.890,42.789,25.002,42.826C25.114,42.863,25.787,42.920,27.022,42.994C27.302,43.013,27.620,43.032,27.975,43.050C28.331,43.069,28.611,43.097,28.817,43.135C29.023,43.172,29.126,43.181,29.126,43.163C29.350,43.163,29.462,43.088,29.462,42.938C29.462,42.733,28.780,39.927,27.414,34.522C26.049,29.117,25.348,26.284,25.310,26.022C25.310,25.985,25.310,25.910,25.310,25.798C25.310,25.685,25.301,25.592,25.282,25.517L25.282,25.349ZZ"/></g></g><g id="shape-0a164559-52a5-80c2-8006-305e120877b1"><g class="fills" id="fills-0a164559-52a5-80c2-8006-305e120877b1"><path d="M24.328,23.385C24.085,23.385,23.889,23.450,23.739,23.581C23.590,23.712,23.487,23.824,23.431,23.918C23.375,24.011,23.356,24.096,23.375,24.170C23.375,24.414,23.814,26.284,24.693,29.781C25.572,33.278,26.049,35.121,26.124,35.308C26.367,35.831,26.797,36.093,27.414,36.093C27.639,36.074,27.826,36.009,27.975,35.897C28.125,35.785,28.219,35.663,28.256,35.532C28.293,35.401,28.312,35.308,28.312,35.252C28.312,35.046,28.153,34.345,27.835,33.148L27.386,31.268C27.405,31.249,27.555,31.315,27.835,31.464C28.116,31.614,28.368,31.754,28.593,31.885C28.911,32.110,29.574,32.643,30.584,33.484C31.594,34.326,32.436,34.915,33.109,35.252C33.782,35.588,34.446,35.766,35.101,35.785C35.512,35.785,35.821,35.682,36.027,35.476C36.232,35.270,36.345,34.999,36.363,34.662C36.363,34.195,36.195,33.783,35.858,33.428C35.522,33.073,35.101,32.886,34.596,32.867C34.241,32.867,33.951,32.970,33.726,33.176C33.502,33.381,33.380,33.662,33.362,34.017C33.362,34.055,33.380,34.167,33.418,34.354L33.137,34.214C32.595,33.933,31.828,33.372,30.837,32.530L29.098,31.156L28.733,30.903L28.873,30.903C29.191,30.903,29.705,30.847,30.416,30.735C31.127,30.623,31.744,30.426,32.268,30.146C33.315,29.641,33.839,28.893,33.839,27.902C33.839,27.715,33.792,27.378,33.698,26.892C33.605,26.405,33.549,25.966,33.530,25.573C33.530,24.806,33.773,24.423,34.259,24.423C35.138,24.423,35.849,25.461,36.391,27.537C36.448,27.761,36.504,27.892,36.560,27.930C36.616,27.967,36.765,27.986,37.009,27.986C37.364,27.986,37.542,27.902,37.542,27.733C37.542,27.303,37.289,26.555,36.784,25.489C36.279,24.423,35.625,23.759,34.820,23.497C34.633,23.441,34.390,23.413,34.091,23.413C33.249,23.413,32.586,23.665,32.099,24.170C31.613,24.675,31.361,25.358,31.342,26.218C31.342,26.555,31.370,26.854,31.426,27.116C31.482,27.378,31.510,27.602,31.510,27.789C31.510,28.238,31.332,28.612,30.977,28.911C30.622,29.211,30.164,29.426,29.602,29.557C29.041,29.688,28.583,29.772,28.228,29.809C27.873,29.847,27.527,29.875,27.190,29.893L27.050,29.893L26.348,27.116C25.862,25.246,25.591,24.255,25.535,24.142C25.292,23.637,24.890,23.385,24.328,23.385ZZ"/></g></g><g id="shape-0a164559-52a5-80c2-8006-305e1208dbcb"><g class="fills" id="fills-0a164559-52a5-80c2-8006-305e1208dbcb"><path d="M23.094,31.661C22.701,31.661,22.505,31.754,22.505,31.941C22.505,32.072,22.757,32.484,23.262,33.176C23.767,33.868,24.272,34.429,24.777,34.859C25.432,35.364,26.040,35.654,26.601,35.728C26.713,35.766,28.284,35.785,31.314,35.785C34.306,35.785,35.849,35.766,35.943,35.728C36.317,35.635,36.504,35.382,36.504,34.971C36.504,34.709,36.419,34.466,36.251,34.242C36.083,34.017,35.868,33.868,35.606,33.793C35.494,33.755,34.596,33.737,32.913,33.737C31.230,33.737,30.388,33.718,30.388,33.681C30.369,33.662,30.220,32.895,29.939,31.380C29.659,29.865,29.359,28.322,29.041,26.751C28.723,25.180,28.555,24.348,28.536,24.255C28.443,23.974,28.275,23.750,28.031,23.581C27.788,23.413,27.517,23.329,27.218,23.329C26.601,23.329,26.292,23.637,26.292,24.255L26.292,24.535L27.695,29.080C27.901,29.753,28.125,30.501,28.368,31.324C28.611,32.147,28.808,32.745,28.957,33.120L29.126,33.709C29.126,33.727,28.695,33.737,27.835,33.737C27.798,33.737,27.695,33.737,27.527,33.737C27.358,33.737,27.227,33.746,27.134,33.765C25.675,33.765,24.534,33.166,23.711,31.969C23.618,31.820,23.543,31.736,23.487,31.717C23.431,31.698,23.300,31.679,23.094,31.661ZZ"/></g></g><g id="shape-0a164559-52a5-80c2-8006-305e12095182"><g class="fills" id="fills-0a164559-52a5-80c2-8006-305e12095182"><path d="M38.159,20.187C38.159,19.775,37.888,19.308,37.345,18.784C36.803,18.261,36.242,17.989,35.662,17.971L35.353,17.971C33.820,17.971,32.763,18.410,32.183,19.289C31.641,20.093,30.986,21.805,30.220,24.423L29.967,25.349C29.948,25.330,29.612,24.956,28.957,24.227C28.303,23.497,27.573,22.702,26.769,21.842C25.965,20.982,25.236,20.187,24.581,19.457C23.926,18.728,23.562,18.354,23.487,18.335C23.412,18.279,23.319,18.251,23.206,18.251C23.075,18.251,22.963,18.298,22.870,18.391C22.776,18.485,22.720,18.597,22.701,18.728C22.683,18.859,22.804,19.074,23.066,19.373C23.328,19.673,24.385,20.832,26.236,22.852L29.631,26.555L29.434,27.369C28.013,32.493,26.797,35.055,25.787,35.055C25.207,35.055,24.759,34.616,24.441,33.737C24.422,33.606,24.244,33.540,23.908,33.540C23.534,33.540,23.347,33.634,23.347,33.821C23.347,33.970,23.421,34.204,23.571,34.522C23.721,34.840,24.029,35.186,24.497,35.560C24.964,35.934,25.516,36.112,26.152,36.093C27.573,36.093,28.602,35.700,29.238,34.915C29.574,34.447,29.939,33.699,30.332,32.671C30.725,31.642,31.033,30.726,31.258,29.921L31.566,28.743C31.622,28.743,32.688,29.893,34.764,32.194C36.840,34.494,37.944,35.672,38.075,35.728C38.187,35.766,38.271,35.785,38.327,35.785C38.664,35.785,38.832,35.626,38.832,35.308C38.832,35.177,38.711,34.971,38.467,34.691C38.224,34.410,37.196,33.269,35.382,31.268C33.119,28.799,31.959,27.528,31.903,27.453L32.155,26.555C32.716,24.460,33.334,22.674,34.007,21.197C34.680,19.719,35.260,18.981,35.746,18.981C36.008,18.981,36.261,19.093,36.504,19.317C36.747,19.542,36.924,19.822,37.037,20.159C37.093,20.346,37.158,20.449,37.233,20.467C37.308,20.486,37.439,20.495,37.626,20.495C37.813,20.495,37.944,20.486,38.019,20.467C38.112,20.411,38.159,20.318,38.159,20.187ZZ"/></g></g></defs></g><g id="shape-0a164559-52a5-80c2-8006-305e1209fa83" rx="0" ry="0" style="fill: rgb(0, 0, 0);"><g id="shape-0a164559-52a5-80c2-8006-305e120a00a1" rx="0" ry="0" style="fill: rgb(0, 0, 0);"><g id="shape-0a164559-52a5-80c2-8006-305e120a4b66" rx="0" ry="0" style="fill: rgb(0, 0, 0);"><g id="shape-0a164559-52a5-80c2-8006-305e120bbc29"><g class="fills" id="fills-0a164559-52a5-80c2-8006-305e120bbc29"><path d="M23.515,17.017C23.852,17.017,24.020,17.260,24.020,17.746C24.020,18.457,24.338,19.308,24.974,20.299C25.105,20.505,25.348,20.795,25.703,21.169C26.058,21.543,26.376,21.833,26.657,22.038C27.686,22.712,28.602,23.048,29.406,23.048C30.360,23.048,31.145,22.880,31.763,22.543C32.137,22.375,32.473,22.020,32.773,21.477C32.941,21.047,33.025,20.580,33.025,20.075C33.025,19.102,32.679,18.261,31.987,17.550C31.295,16.839,30.033,16.091,28.200,15.306C26.311,14.483,24.936,13.632,24.076,12.753C23.216,11.874,22.785,10.836,22.785,9.639C22.785,8.517,23.038,7.497,23.543,6.581C24.347,5.234,25.815,4.402,27.947,4.084C27.985,4.084,28.162,4.075,28.480,4.056C28.798,4.037,29.079,4.028,29.322,4.028C30.220,4.084,30.958,4.215,31.538,4.421C32.118,4.627,32.754,4.739,33.446,4.757C33.876,4.701,34.222,4.561,34.484,4.337C34.746,4.112,34.933,4.000,35.045,4.000C35.213,4.000,35.363,4.112,35.494,4.337L35.494,9.751L35.382,9.947C35.138,10.116,34.886,10.116,34.624,9.947C34.549,9.760,34.512,9.657,34.512,9.639C34.512,8.797,33.951,7.815,32.829,6.693C31.707,5.571,30.528,5.010,29.294,5.010C28.452,5.010,27.723,5.262,27.106,5.767C26.489,6.272,26.171,6.964,26.152,7.843C26.152,8.535,26.507,9.181,27.218,9.779C27.929,10.377,29.172,11.013,30.949,11.687C31.566,11.948,32.043,12.164,32.380,12.332C32.716,12.500,33.165,12.743,33.726,13.061C34.287,13.379,34.755,13.763,35.129,14.211C35.503,14.660,35.858,15.165,36.195,15.726C36.607,16.568,36.812,17.438,36.812,18.335C36.812,20.000,36.139,21.356,34.792,22.403C33.446,23.450,31.669,23.974,29.462,23.974C28.434,23.974,27.592,23.862,26.937,23.637C26.283,23.413,25.666,23.291,25.086,23.273C24.637,23.385,24.291,23.535,24.048,23.722C23.805,23.909,23.618,24.011,23.487,24.030C23.319,24.030,23.169,23.927,23.038,23.722L23.038,20.552L23.038,18.588C23.038,17.989,23.066,17.578,23.122,17.353C23.178,17.129,23.309,17.017,23.515,17.017ZZM34.512,6.328C34.512,5.786,34.493,5.515,34.456,5.515C34.362,5.552,34.278,5.590,34.203,5.627C34.016,5.627,33.829,5.674,33.642,5.767L33.334,5.767L33.698,6.188C34.035,6.525,34.241,6.740,34.315,6.833L34.512,7.086L34.512,6.328ZZM25.479,6.328L25.591,5.880C25.553,5.880,25.366,6.048,25.030,6.385C24.207,7.151,23.795,8.227,23.795,9.611C23.795,9.854,23.805,10.069,23.823,10.256C23.842,10.443,23.945,10.723,24.132,11.098C24.319,11.472,24.562,11.799,24.861,12.079C25.161,12.360,25.610,12.715,26.208,13.145C26.806,13.576,27.536,13.959,28.396,14.296C30.397,15.119,31.828,15.960,32.688,16.820C33.549,17.681,33.979,18.775,33.979,20.103C33.979,20.739,33.904,21.234,33.754,21.590L33.642,21.982C33.754,21.982,34.063,21.730,34.568,21.225C35.353,20.495,35.746,19.542,35.746,18.363C35.746,17.559,35.606,16.867,35.325,16.287C34.970,15.633,34.549,15.100,34.063,14.688C33.539,14.165,32.969,13.735,32.352,13.398C31.735,13.061,30.968,12.715,30.051,12.360C29.135,12.005,28.359,11.659,27.723,11.322C26.489,10.574,25.694,9.779,25.338,8.937C25.226,8.601,25.170,8.236,25.170,7.843C25.170,7.264,25.273,6.759,25.479,6.328ZZM24.104,22.487C24.123,22.487,24.263,22.459,24.525,22.403C24.787,22.347,24.974,22.310,25.086,22.291L25.338,22.291L24.974,21.898L24.076,20.860C24.039,20.860,24.020,21.131,24.020,21.674C24.020,22.216,24.048,22.487,24.104,22.487ZZ"/></g><g id="strokes-3dfdbeae-02fa-8071-8006-306158ab9652-0a164559-52a5-80c2-8006-305e120bbc29" class="strokes"><g class="stroke-shape"><path d="M23.515,17.017C23.852,17.017,24.020,17.260,24.020,17.746C24.020,18.457,24.338,19.308,24.974,20.299C25.105,20.505,25.348,20.795,25.703,21.169C26.058,21.543,26.376,21.833,26.657,22.038C27.686,22.712,28.602,23.048,29.406,23.048C30.360,23.048,31.145,22.880,31.763,22.543C32.137,22.375,32.473,22.020,32.773,21.477C32.941,21.047,33.025,20.580,33.025,20.075C33.025,19.102,32.679,18.261,31.987,17.550C31.295,16.839,30.033,16.091,28.200,15.306C26.311,14.483,24.936,13.632,24.076,12.753C23.216,11.874,22.785,10.836,22.785,9.639C22.785,8.517,23.038,7.497,23.543,6.581C24.347,5.234,25.815,4.402,27.947,4.084C27.985,4.084,28.162,4.075,28.480,4.056C28.798,4.037,29.079,4.028,29.322,4.028C30.220,4.084,30.958,4.215,31.538,4.421C32.118,4.627,32.754,4.739,33.446,4.757C33.876,4.701,34.222,4.561,34.484,4.337C34.746,4.112,34.933,4.000,35.045,4.000C35.213,4.000,35.363,4.112,35.494,4.337L35.494,9.751L35.382,9.947C35.138,10.116,34.886,10.116,34.624,9.947C34.549,9.760,34.512,9.657,34.512,9.639C34.512,8.797,33.951,7.815,32.829,6.693C31.707,5.571,30.528,5.010,29.294,5.010C28.452,5.010,27.723,5.262,27.106,5.767C26.489,6.272,26.171,6.964,26.152,7.843C26.152,8.535,26.507,9.181,27.218,9.779C27.929,10.377,29.172,11.013,30.949,11.687C31.566,11.948,32.043,12.164,32.380,12.332C32.716,12.500,33.165,12.743,33.726,13.061C34.287,13.379,34.755,13.763,35.129,14.211C35.503,14.660,35.858,15.165,36.195,15.726C36.607,16.568,36.812,17.438,36.812,18.335C36.812,20.000,36.139,21.356,34.792,22.403C33.446,23.450,31.669,23.974,29.462,23.974C28.434,23.974,27.592,23.862,26.937,23.637C26.283,23.413,25.666,23.291,25.086,23.273C24.637,23.385,24.291,23.535,24.048,23.722C23.805,23.909,23.618,24.011,23.487,24.030C23.319,24.030,23.169,23.927,23.038,23.722L23.038,20.552L23.038,18.588C23.038,17.989,23.066,17.578,23.122,17.353C23.178,17.129,23.309,17.017,23.515,17.017ZZM34.512,6.328C34.512,5.786,34.493,5.515,34.456,5.515C34.362,5.552,34.278,5.590,34.203,5.627C34.016,5.627,33.829,5.674,33.642,5.767L33.334,5.767L33.698,6.188C34.035,6.525,34.241,6.740,34.315,6.833L34.512,7.086L34.512,6.328ZZM25.479,6.328L25.591,5.880C25.553,5.880,25.366,6.048,25.030,6.385C24.207,7.151,23.795,8.227,23.795,9.611C23.795,9.854,23.805,10.069,23.823,10.256C23.842,10.443,23.945,10.723,24.132,11.098C24.319,11.472,24.562,11.799,24.861,12.079C25.161,12.360,25.610,12.715,26.208,13.145C26.806,13.576,27.536,13.959,28.396,14.296C30.397,15.119,31.828,15.960,32.688,16.820C33.549,17.681,33.979,18.775,33.979,20.103C33.979,20.739,33.904,21.234,33.754,21.590L33.642,21.982C33.754,21.982,34.063,21.730,34.568,21.225C35.353,20.495,35.746,19.542,35.746,18.363C35.746,17.559,35.606,16.867,35.325,16.287C34.970,15.633,34.549,15.100,34.063,14.688C33.539,14.165,32.969,13.735,32.352,13.398C31.735,13.061,30.968,12.715,30.051,12.360C29.135,12.005,28.359,11.659,27.723,11.322C26.489,10.574,25.694,9.779,25.338,8.937C25.226,8.601,25.170,8.236,25.170,7.843C25.170,7.264,25.273,6.759,25.479,6.328ZZM24.104,22.487C24.123,22.487,24.263,22.459,24.525,22.403C24.787,22.347,24.974,22.310,25.086,22.291L25.338,22.291L24.974,21.898L24.076,20.860C24.039,20.860,24.020,21.131,24.020,21.674C24.020,22.216,24.048,22.487,24.104,22.487ZZ" style="fill: none; stroke-width: 0; stroke: rgb(0, 0, 0); stroke-opacity: 1;"/></g></g></g></g></g><g id="shape-0a164559-52a5-80c2-8006-305e1210487e" rx="0" ry="0" style="fill: rgb(0, 0, 0);"><g id="shape-0a164559-52a5-80c2-8006-305e12113a3d"><g class="fills" id="fills-0a164559-52a5-80c2-8006-305e12113a3d"><path d="M102.457,27.200C102.457,27.612,102.186,28.079,101.644,28.603C101.101,29.127,100.540,29.398,99.961,29.416L99.652,29.416C98.118,29.416,97.062,28.977,96.482,28.098C95.940,27.294,95.285,25.582,94.518,22.964L94.266,22.038C94.247,22.057,93.910,22.431,93.256,23.161C92.601,23.890,91.872,24.685,91.068,25.545C90.263,26.405,89.534,27.200,88.880,27.930C88.225,28.659,87.860,29.033,87.785,29.052C87.711,29.108,87.617,29.136,87.505,29.136C87.374,29.136,87.262,29.089,87.168,28.996C87.075,28.902,87.019,28.790,87.000,28.659C86.981,28.528,87.103,28.313,87.365,28.014C87.626,27.715,88.683,26.555,90.535,24.535L93.929,20.832L93.733,20.019C92.311,14.894,91.096,12.332,90.086,12.332C89.506,12.332,89.057,12.771,88.739,13.650C88.721,13.781,88.543,13.847,88.206,13.847C87.832,13.847,87.645,13.753,87.645,13.566C87.645,13.417,87.720,13.183,87.870,12.865C88.019,12.547,88.328,12.201,88.795,11.827C89.263,11.453,89.815,11.275,90.450,11.294C91.872,11.294,92.901,11.687,93.536,12.472C93.873,12.940,94.238,13.688,94.630,14.716C95.023,15.745,95.332,16.661,95.556,17.466L95.865,18.644C95.921,18.644,96.987,17.494,99.063,15.193C101.139,12.893,102.242,11.715,102.373,11.659C102.485,11.621,102.570,11.602,102.626,11.602C102.962,11.602,103.131,11.761,103.131,12.079C103.131,12.210,103.009,12.416,102.766,12.697C102.523,12.977,101.494,14.118,99.680,16.119C97.417,18.588,96.258,19.860,96.201,19.934L96.454,20.832C97.015,22.927,97.632,24.713,98.305,26.190C98.979,27.668,99.559,28.407,100.045,28.407C100.307,28.407,100.559,28.294,100.802,28.070C101.045,27.845,101.223,27.565,101.335,27.228C101.391,27.041,101.457,26.938,101.532,26.920C101.606,26.901,101.737,26.892,101.924,26.892C102.111,26.892,102.242,26.901,102.317,26.920C102.411,26.976,102.457,27.069,102.457,27.200ZZ"/></g><g id="strokes-3dfdbeae-02fa-8071-8006-306158ae92ad-0a164559-52a5-80c2-8006-305e12113a3d" class="strokes"><g class="stroke-shape"><path d="M102.457,27.200C102.457,27.612,102.186,28.079,101.644,28.603C101.101,29.127,100.540,29.398,99.961,29.416L99.652,29.416C98.118,29.416,97.062,28.977,96.482,28.098C95.940,27.294,95.285,25.582,94.518,22.964L94.266,22.038C94.247,22.057,93.910,22.431,93.256,23.161C92.601,23.890,91.872,24.685,91.068,25.545C90.263,26.405,89.534,27.200,88.880,27.930C88.225,28.659,87.860,29.033,87.785,29.052C87.711,29.108,87.617,29.136,87.505,29.136C87.374,29.136,87.262,29.089,87.168,28.996C87.075,28.902,87.019,28.790,87.000,28.659C86.981,28.528,87.103,28.313,87.365,28.014C87.626,27.715,88.683,26.555,90.535,24.535L93.929,20.832L93.733,20.019C92.311,14.894,91.096,12.332,90.086,12.332C89.506,12.332,89.057,12.771,88.739,13.650C88.721,13.781,88.543,13.847,88.206,13.847C87.832,13.847,87.645,13.753,87.645,13.566C87.645,13.417,87.720,13.183,87.870,12.865C88.019,12.547,88.328,12.201,88.795,11.827C89.263,11.453,89.815,11.275,90.450,11.294C91.872,11.294,92.901,11.687,93.536,12.472C93.873,12.940,94.238,13.688,94.630,14.716C95.023,15.745,95.332,16.661,95.556,17.466L95.865,18.644C95.921,18.644,96.987,17.494,99.063,15.193C101.139,12.893,102.242,11.715,102.373,11.659C102.485,11.621,102.570,11.602,102.626,11.602C102.962,11.602,103.131,11.761,103.131,12.079C103.131,12.210,103.009,12.416,102.766,12.697C102.523,12.977,101.494,14.118,99.680,16.119C97.417,18.588,96.258,19.860,96.201,19.934L96.454,20.832C97.015,22.927,97.632,24.713,98.305,26.190C98.979,27.668,99.559,28.407,100.045,28.407C100.307,28.407,100.559,28.294,100.802,28.070C101.045,27.845,101.223,27.565,101.335,27.228C101.391,27.041,101.457,26.938,101.532,26.920C101.606,26.901,101.737,26.892,101.924,26.892C102.111,26.892,102.242,26.901,102.317,26.920C102.411,26.976,102.457,27.069,102.457,27.200ZZ" style="fill: none; stroke-width: 0; stroke: rgb(0, 0, 0); stroke-opacity: 1;"/></g></g></g></g><g id="shape-0a164559-52a5-80c2-8006-305e120c2072" rx="0" ry="0" style="fill: rgb(0, 0, 0);"><g id="shape-0a164559-52a5-80c2-8006-305e120cdf99"><g class="fills" id="fills-0a164559-52a5-80c2-8006-305e120cdf99"><path d="M42.760,6.861C42.760,6.413,42.937,6.020,43.293,5.683C43.648,5.347,44.059,5.169,44.527,5.150C44.864,5.150,45.144,5.262,45.369,5.487C45.593,5.711,45.715,5.992,45.733,6.328C45.733,6.759,45.546,7.151,45.172,7.507C44.798,7.862,44.387,8.049,43.938,8.068C43.657,8.068,43.395,7.974,43.152,7.787C42.909,7.600,42.778,7.292,42.760,6.861ZZM38.187,15.642C38.187,15.493,38.271,15.203,38.439,14.773C38.608,14.342,38.832,13.865,39.113,13.342C39.393,12.818,39.805,12.341,40.347,11.911C40.889,11.481,41.450,11.275,42.030,11.294C42.760,11.294,43.367,11.509,43.854,11.939C44.340,12.369,44.592,12.949,44.611,13.678C44.611,13.996,44.480,14.520,44.218,15.249C43.957,15.979,43.582,16.961,43.096,18.195C42.610,19.429,42.217,20.486,41.918,21.365C41.824,21.777,41.778,22.076,41.778,22.263C41.778,22.730,41.937,22.964,42.255,22.964C42.423,22.964,42.601,22.936,42.788,22.880C42.975,22.824,43.190,22.693,43.433,22.487C43.676,22.282,43.928,21.954,44.190,21.505C44.452,21.057,44.686,20.505,44.892,19.850C44.948,19.626,44.995,19.495,45.032,19.457C45.069,19.420,45.228,19.401,45.509,19.401C45.883,19.401,46.070,19.495,46.070,19.682C46.070,19.832,45.986,20.121,45.817,20.552C45.649,20.982,45.415,21.459,45.116,21.982C44.817,22.506,44.396,22.974,43.854,23.385C43.311,23.796,42.732,24.002,42.114,24.002C41.516,24.002,40.964,23.806,40.459,23.413C39.954,23.020,39.692,22.422,39.674,21.618C39.674,21.300,39.720,21.000,39.814,20.720C39.907,20.439,40.310,19.373,41.020,17.522C41.731,15.633,42.142,14.501,42.255,14.127C42.367,13.753,42.432,13.389,42.451,13.033C42.451,12.584,42.292,12.360,41.974,12.360L41.918,12.360C41.357,12.360,40.843,12.669,40.375,13.286C39.907,13.903,39.552,14.688,39.309,15.642C39.290,15.661,39.272,15.689,39.253,15.726C39.234,15.764,39.225,15.792,39.225,15.811C39.225,15.829,39.206,15.848,39.169,15.867C39.131,15.885,39.103,15.895,39.085,15.895C39.066,15.895,39.028,15.895,38.972,15.895C38.916,15.895,38.841,15.895,38.748,15.895L38.355,15.895C38.243,15.782,38.187,15.698,38.187,15.642ZZ"/></g><g id="strokes-3dfdbeae-02fa-8071-8006-306158af9186-0a164559-52a5-80c2-8006-305e120cdf99" class="strokes"><g class="stroke-shape"><path d="M42.760,6.861C42.760,6.413,42.937,6.020,43.293,5.683C43.648,5.347,44.059,5.169,44.527,5.150C44.864,5.150,45.144,5.262,45.369,5.487C45.593,5.711,45.715,5.992,45.733,6.328C45.733,6.759,45.546,7.151,45.172,7.507C44.798,7.862,44.387,8.049,43.938,8.068C43.657,8.068,43.395,7.974,43.152,7.787C42.909,7.600,42.778,7.292,42.760,6.861ZZM38.187,15.642C38.187,15.493,38.271,15.203,38.439,14.773C38.608,14.342,38.832,13.865,39.113,13.342C39.393,12.818,39.805,12.341,40.347,11.911C40.889,11.481,41.450,11.275,42.030,11.294C42.760,11.294,43.367,11.509,43.854,11.939C44.340,12.369,44.592,12.949,44.611,13.678C44.611,13.996,44.480,14.520,44.218,15.249C43.957,15.979,43.582,16.961,43.096,18.195C42.610,19.429,42.217,20.486,41.918,21.365C41.824,21.777,41.778,22.076,41.778,22.263C41.778,22.730,41.937,22.964,42.255,22.964C42.423,22.964,42.601,22.936,42.788,22.880C42.975,22.824,43.190,22.693,43.433,22.487C43.676,22.282,43.928,21.954,44.190,21.505C44.452,21.057,44.686,20.505,44.892,19.850C44.948,19.626,44.995,19.495,45.032,19.457C45.069,19.420,45.228,19.401,45.509,19.401C45.883,19.401,46.070,19.495,46.070,19.682C46.070,19.832,45.986,20.121,45.817,20.552C45.649,20.982,45.415,21.459,45.116,21.982C44.817,22.506,44.396,22.974,43.854,23.385C43.311,23.796,42.732,24.002,42.114,24.002C41.516,24.002,40.964,23.806,40.459,23.413C39.954,23.020,39.692,22.422,39.674,21.618C39.674,21.300,39.720,21.000,39.814,20.720C39.907,20.439,40.310,19.373,41.020,17.522C41.731,15.633,42.142,14.501,42.255,14.127C42.367,13.753,42.432,13.389,42.451,13.033C42.451,12.584,42.292,12.360,41.974,12.360L41.918,12.360C41.357,12.360,40.843,12.669,40.375,13.286C39.907,13.903,39.552,14.688,39.309,15.642C39.290,15.661,39.272,15.689,39.253,15.726C39.234,15.764,39.225,15.792,39.225,15.811C39.225,15.829,39.206,15.848,39.169,15.867C39.131,15.885,39.103,15.895,39.085,15.895C39.066,15.895,39.028,15.895,38.972,15.895C38.916,15.895,38.841,15.895,38.748,15.895L38.355,15.895C38.243,15.782,38.187,15.698,38.187,15.642ZZ" style="fill: none; stroke-width: 0; stroke: rgb(0, 0, 0); stroke-opacity: 1;"/></g></g></g></g><g id="shape-0a164559-52a5-80c2-8006-305e120d00c9" rx="0" ry="0" style="fill: rgb(0, 0, 0);"><g id="shape-0a164559-52a5-80c2-8006-305e120df14d"><g class="fills" id="fills-0a164559-52a5-80c2-8006-305e120df14d"><path d="M50.558,22.038C50.558,22.656,50.792,22.964,51.260,22.964C51.952,22.964,52.541,21.982,53.027,20.019C53.139,19.644,53.233,19.448,53.308,19.429C53.345,19.411,53.439,19.401,53.588,19.401L53.700,19.401C53.869,19.401,53.981,19.401,54.037,19.401C54.093,19.401,54.140,19.420,54.177,19.457C54.215,19.495,54.233,19.560,54.233,19.654C54.215,19.766,54.187,19.916,54.149,20.103C54.112,20.290,54.009,20.645,53.841,21.169C53.672,21.692,53.485,22.132,53.280,22.487C53.074,22.843,52.784,23.189,52.410,23.525C52.036,23.862,51.606,24.021,51.120,24.002C50.446,24.002,49.820,23.796,49.240,23.385C48.660,22.974,48.361,22.282,48.342,21.309C48.342,21.085,48.352,20.926,48.370,20.832L50.194,13.594C51.372,8.825,51.961,6.366,51.961,6.216C51.961,6.160,51.952,6.113,51.933,6.076C51.914,6.039,51.877,6.001,51.821,5.964C51.765,5.926,51.718,5.908,51.681,5.908C51.643,5.908,51.568,5.898,51.456,5.880C51.344,5.861,51.269,5.852,51.232,5.852C51.194,5.852,51.110,5.842,50.979,5.823C50.848,5.805,50.755,5.805,50.699,5.823C50.512,5.823,50.390,5.823,50.334,5.823C50.278,5.823,50.203,5.814,50.110,5.795C50.016,5.777,49.960,5.749,49.941,5.711C49.923,5.674,49.913,5.618,49.913,5.543C49.913,5.506,49.932,5.375,49.969,5.150C50.063,4.795,50.166,4.598,50.278,4.561C50.390,4.524,51.063,4.468,52.298,4.393C52.578,4.374,52.896,4.355,53.252,4.337C53.607,4.318,53.887,4.290,54.093,4.252C54.299,4.215,54.402,4.206,54.402,4.224C54.626,4.224,54.738,4.299,54.738,4.449C54.738,4.655,54.056,7.460,52.691,12.865C51.325,18.270,50.624,21.103,50.586,21.365C50.586,21.403,50.586,21.477,50.586,21.590C50.586,21.702,50.577,21.795,50.558,21.870L50.558,22.038ZZ"/></g><g id="strokes-3dfdbeae-02fa-8071-8006-306158b165d7-0a164559-52a5-80c2-8006-305e120df14d" class="strokes"><g class="stroke-shape"><path d="M50.558,22.038C50.558,22.656,50.792,22.964,51.260,22.964C51.952,22.964,52.541,21.982,53.027,20.019C53.139,19.644,53.233,19.448,53.308,19.429C53.345,19.411,53.439,19.401,53.588,19.401L53.700,19.401C53.869,19.401,53.981,19.401,54.037,19.401C54.093,19.401,54.140,19.420,54.177,19.457C54.215,19.495,54.233,19.560,54.233,19.654C54.215,19.766,54.187,19.916,54.149,20.103C54.112,20.290,54.009,20.645,53.841,21.169C53.672,21.692,53.485,22.132,53.280,22.487C53.074,22.843,52.784,23.189,52.410,23.525C52.036,23.862,51.606,24.021,51.120,24.002C50.446,24.002,49.820,23.796,49.240,23.385C48.660,22.974,48.361,22.282,48.342,21.309C48.342,21.085,48.352,20.926,48.370,20.832L50.194,13.594C51.372,8.825,51.961,6.366,51.961,6.216C51.961,6.160,51.952,6.113,51.933,6.076C51.914,6.039,51.877,6.001,51.821,5.964C51.765,5.926,51.718,5.908,51.681,5.908C51.643,5.908,51.568,5.898,51.456,5.880C51.344,5.861,51.269,5.852,51.232,5.852C51.194,5.852,51.110,5.842,50.979,5.823C50.848,5.805,50.755,5.805,50.699,5.823C50.512,5.823,50.390,5.823,50.334,5.823C50.278,5.823,50.203,5.814,50.110,5.795C50.016,5.777,49.960,5.749,49.941,5.711C49.923,5.674,49.913,5.618,49.913,5.543C49.913,5.506,49.932,5.375,49.969,5.150C50.063,4.795,50.166,4.598,50.278,4.561C50.390,4.524,51.063,4.468,52.298,4.393C52.578,4.374,52.896,4.355,53.252,4.337C53.607,4.318,53.887,4.290,54.093,4.252C54.299,4.215,54.402,4.206,54.402,4.224C54.626,4.224,54.738,4.299,54.738,4.449C54.738,4.655,54.056,7.460,52.691,12.865C51.325,18.270,50.624,21.103,50.586,21.365C50.586,21.403,50.586,21.477,50.586,21.590C50.586,21.702,50.577,21.795,50.558,21.870L50.558,22.038ZZ" style="fill: none; stroke-width: 0; stroke: rgb(0, 0, 0); stroke-opacity: 1;"/></g></g></g></g><g id="shape-0a164559-52a5-80c2-8006-305e120e0a40" rx="0" ry="0" style="fill: rgb(0, 0, 0);"><g id="shape-0a164559-52a5-80c2-8006-305e120f59da"><g class="fills" id="fills-0a164559-52a5-80c2-8006-305e120f59da"><path d="M57.965,24.002C57.721,24.002,57.525,23.937,57.375,23.806C57.226,23.675,57.123,23.563,57.067,23.469C57.011,23.376,56.992,23.291,57.011,23.217C57.011,22.974,57.450,21.103,58.329,17.606C59.208,14.109,59.685,12.266,59.760,12.079C60.003,11.556,60.433,11.294,61.050,11.294C61.275,11.313,61.462,11.378,61.612,11.490C61.761,11.602,61.855,11.724,61.892,11.855C61.929,11.986,61.948,12.079,61.948,12.136C61.948,12.341,61.789,13.043,61.471,14.240L61.022,16.119C61.041,16.138,61.191,16.072,61.471,15.923C61.752,15.773,62.004,15.633,62.229,15.502C62.547,15.277,63.211,14.744,64.220,13.903C65.230,13.061,66.072,12.472,66.745,12.136C67.419,11.799,68.083,11.621,68.737,11.602C69.149,11.602,69.457,11.705,69.663,11.911C69.869,12.117,69.981,12.388,70.000,12.725C70.000,13.192,69.831,13.604,69.495,13.959C69.158,14.314,68.737,14.501,68.232,14.520C67.877,14.520,67.587,14.417,67.362,14.211C67.138,14.006,67.016,13.725,66.998,13.370C66.998,13.332,67.016,13.220,67.054,13.033L66.773,13.173C66.231,13.454,65.464,14.015,64.473,14.857L62.734,16.231L62.369,16.484L62.509,16.484C62.827,16.484,63.341,16.540,64.052,16.652C64.763,16.764,65.380,16.961,65.904,17.241C66.951,17.746,67.475,18.494,67.475,19.486C67.475,19.673,67.428,20.009,67.334,20.495C67.241,20.982,67.185,21.421,67.166,21.814C67.166,22.581,67.409,22.964,67.895,22.964C68.775,22.964,69.485,21.926,70.028,19.850C70.084,19.626,70.140,19.495,70.196,19.457C70.252,19.420,70.402,19.401,70.645,19.401C71.000,19.401,71.178,19.486,71.178,19.654C71.178,20.084,70.925,20.832,70.420,21.898C69.915,22.964,69.261,23.628,68.457,23.890C68.270,23.946,68.026,23.974,67.727,23.974C66.886,23.974,66.222,23.722,65.735,23.217C65.249,22.712,64.997,22.029,64.978,21.169C64.978,20.832,65.006,20.533,65.062,20.271C65.118,20.009,65.146,19.785,65.146,19.598C65.146,19.149,64.969,18.775,64.613,18.476C64.258,18.176,63.800,17.961,63.239,17.830C62.678,17.699,62.219,17.615,61.864,17.578C61.509,17.540,61.163,17.512,60.826,17.494L60.686,17.494L59.984,20.271C59.498,22.141,59.227,23.132,59.171,23.245C58.928,23.750,58.526,24.002,57.965,24.002ZZ"/></g><g id="strokes-3dfdbeae-02fa-8071-8006-306158b2e3cf-0a164559-52a5-80c2-8006-305e120f59da" class="strokes"><g class="stroke-shape"><path d="M57.965,24.002C57.721,24.002,57.525,23.937,57.375,23.806C57.226,23.675,57.123,23.563,57.067,23.469C57.011,23.376,56.992,23.291,57.011,23.217C57.011,22.974,57.450,21.103,58.329,17.606C59.208,14.109,59.685,12.266,59.760,12.079C60.003,11.556,60.433,11.294,61.050,11.294C61.275,11.313,61.462,11.378,61.612,11.490C61.761,11.602,61.855,11.724,61.892,11.855C61.929,11.986,61.948,12.079,61.948,12.136C61.948,12.341,61.789,13.043,61.471,14.240L61.022,16.119C61.041,16.138,61.191,16.072,61.471,15.923C61.752,15.773,62.004,15.633,62.229,15.502C62.547,15.277,63.211,14.744,64.220,13.903C65.230,13.061,66.072,12.472,66.745,12.136C67.419,11.799,68.083,11.621,68.737,11.602C69.149,11.602,69.457,11.705,69.663,11.911C69.869,12.117,69.981,12.388,70.000,12.725C70.000,13.192,69.831,13.604,69.495,13.959C69.158,14.314,68.737,14.501,68.232,14.520C67.877,14.520,67.587,14.417,67.362,14.211C67.138,14.006,67.016,13.725,66.998,13.370C66.998,13.332,67.016,13.220,67.054,13.033L66.773,13.173C66.231,13.454,65.464,14.015,64.473,14.857L62.734,16.231L62.369,16.484L62.509,16.484C62.827,16.484,63.341,16.540,64.052,16.652C64.763,16.764,65.380,16.961,65.904,17.241C66.951,17.746,67.475,18.494,67.475,19.486C67.475,19.673,67.428,20.009,67.334,20.495C67.241,20.982,67.185,21.421,67.166,21.814C67.166,22.581,67.409,22.964,67.895,22.964C68.775,22.964,69.485,21.926,70.028,19.850C70.084,19.626,70.140,19.495,70.196,19.457C70.252,19.420,70.402,19.401,70.645,19.401C71.000,19.401,71.178,19.486,71.178,19.654C71.178,20.084,70.925,20.832,70.420,21.898C69.915,22.964,69.261,23.628,68.457,23.890C68.270,23.946,68.026,23.974,67.727,23.974C66.886,23.974,66.222,23.722,65.735,23.217C65.249,22.712,64.997,22.029,64.978,21.169C64.978,20.832,65.006,20.533,65.062,20.271C65.118,20.009,65.146,19.785,65.146,19.598C65.146,19.149,64.969,18.775,64.613,18.476C64.258,18.176,63.800,17.961,63.239,17.830C62.678,17.699,62.219,17.615,61.864,17.578C61.509,17.540,61.163,17.512,60.826,17.494L60.686,17.494L59.984,20.271C59.498,22.141,59.227,23.132,59.171,23.245C58.928,23.750,58.526,24.002,57.965,24.002ZZ" style="fill: none; stroke-width: 0; stroke: rgb(0, 0, 0); stroke-opacity: 1;"/></g></g></g></g><g id="shape-0a164559-52a5-80c2-8006-305e120fac88" rx="0" ry="0" style="fill: rgb(0, 0, 0);"><g id="shape-0a164559-52a5-80c2-8006-305e12102479"><g class="fills" id="fills-0a164559-52a5-80c2-8006-305e12102479"><path d="M72.889,15.726C72.496,15.726,72.300,15.633,72.300,15.446C72.300,15.315,72.552,14.903,73.057,14.211C73.562,13.519,74.067,12.958,74.572,12.528C75.227,12.023,75.835,11.733,76.396,11.659C76.508,11.621,78.079,11.602,81.109,11.602C84.101,11.602,85.644,11.621,85.738,11.659C86.112,11.752,86.299,12.005,86.299,12.416C86.299,12.678,86.214,12.921,86.046,13.145C85.878,13.370,85.663,13.519,85.401,13.594C85.289,13.632,84.391,13.650,82.708,13.650C81.025,13.650,80.183,13.669,80.183,13.707C80.164,13.725,80.015,14.492,79.734,16.007C79.454,17.522,79.154,19.065,78.836,20.636C78.518,22.207,78.350,23.039,78.331,23.132C78.238,23.413,78.070,23.637,77.826,23.806C77.583,23.974,77.312,24.058,77.013,24.058C76.396,24.058,76.087,23.750,76.087,23.132L76.087,22.852L77.490,18.307C77.696,17.634,77.920,16.886,78.163,16.063C78.406,15.240,78.603,14.642,78.752,14.268L78.921,13.678C78.921,13.660,78.490,13.650,77.630,13.650C77.593,13.650,77.490,13.650,77.321,13.650C77.153,13.650,77.022,13.641,76.929,13.622C75.470,13.622,74.329,14.221,73.506,15.418C73.413,15.567,73.338,15.652,73.282,15.670C73.226,15.689,73.095,15.708,72.889,15.726ZZ"/></g><g id="strokes-3dfdbeae-02fa-8071-8006-306158b36d65-0a164559-52a5-80c2-8006-305e12102479" class="strokes"><g class="stroke-shape"><path d="M72.889,15.726C72.496,15.726,72.300,15.633,72.300,15.446C72.300,15.315,72.552,14.903,73.057,14.211C73.562,13.519,74.067,12.958,74.572,12.528C75.227,12.023,75.835,11.733,76.396,11.659C76.508,11.621,78.079,11.602,81.109,11.602C84.101,11.602,85.644,11.621,85.738,11.659C86.112,11.752,86.299,12.005,86.299,12.416C86.299,12.678,86.214,12.921,86.046,13.145C85.878,13.370,85.663,13.519,85.401,13.594C85.289,13.632,84.391,13.650,82.708,13.650C81.025,13.650,80.183,13.669,80.183,13.707C80.164,13.725,80.015,14.492,79.734,16.007C79.454,17.522,79.154,19.065,78.836,20.636C78.518,22.207,78.350,23.039,78.331,23.132C78.238,23.413,78.070,23.637,77.826,23.806C77.583,23.974,77.312,24.058,77.013,24.058C76.396,24.058,76.087,23.750,76.087,23.132L76.087,22.852L77.490,18.307C77.696,17.634,77.920,16.886,78.163,16.063C78.406,15.240,78.603,14.642,78.752,14.268L78.921,13.678C78.921,13.660,78.490,13.650,77.630,13.650C77.593,13.650,77.490,13.650,77.321,13.650C77.153,13.650,77.022,13.641,76.929,13.622C75.470,13.622,74.329,14.221,73.506,15.418C73.413,15.567,73.338,15.652,73.282,15.670C73.226,15.689,73.095,15.708,72.889,15.726ZZ" style="fill: none; stroke-width: 0; stroke: rgb(0, 0, 0); stroke-opacity: 1;"/></g></g></g></g></g></g><g id="shape-0a164559-52a5-80c2-8006-3058ca862014" rx="0" ry="0"><g id="shape-0a164559-52a5-80c2-8006-30589c291032"><g transform="matrix(1.000000, 0.000000, 0.000000, 1.000000, 0.000000, 0.000000)" class="text-container" x="73" y="55" width="44" height="72.91428571428574" rx="0" ry="0"><defs><pattern patternUnits="objectBoundingBox" width="51.4375" height="96.00000762939453" id="fill-0-render-52-0"><g><rect width="51.4375" height="96.00000762939453" style="fill: rgb(0, 0, 0); fill-opacity: 1;"/></g></pattern></defs><g class="fills" id="fills-0a164559-52a5-80c2-8006-30589c291032"><text x="73" y="145.66667413711548" dominant-baseline="ideographic" textLength="51.4375" lengthAdjust="spacingAndGlyphs" style="text-transform: none; font-family: sourcesanspro; letter-spacing: normal; font-style: normal; font-weight: 300; white-space: pre; font-size: 72px; text-decoration: none solid rgb(0, 0, 0); direction: ltr; fill: rgb(0, 0, 0); fill-opacity: 1;"></text></g></g></g></g></g></g></svg>